<?xml version="1.0" encoding="utf-8"?>
<!-- Generator: Adobe Illustrator 16.0.0, SVG Export Plug-In . SVG Version: 6.00 Build 0)  -->
<!DOCTYPE svg PUBLIC "-//W3C//DTD SVG 1.1//EN" "http://www.w3.org/Graphics/SVG/1.1/DTD/svg11.dtd">
<svg version="1.1" id="Layer_1" xmlns="http://www.w3.org/2000/svg" xmlns:xlink="http://www.w3.org/1999/xlink" x="0px" y="0px"
	 width="100px" height="64px" viewBox="0 0 100 64" enable-background="new 0 0 100 64" xml:space="preserve">
<polygon id="_118148960" fill="#1F1A17" points="78.174,13.505 78.174,50.55 92.139,50.55 99.707,50.55 99.707,13.505 
	92.549,13.505 78.252,13.505 "/>
<polygon id="_118148960-1" fill="#1F1A17" points="0.2,13.457 0.122,13.457 0.122,50.503 14.516,50.503 22.314,50.503 
	22.314,13.457 14.941,13.457 "/>
<path fill="#1F1A17" d="M38.618,13.505H25.215V50.55h12.891h35.576h0.908h0.898h0.117V13.505H38.618z M64.453,33.541L40.513,45.65
	c-1.265,0.645-2.3,0.264-2.3-0.84V19.95l0,0c0-1.104,1.035-1.483,2.3-0.844l23.94,12.113C65.723,31.86,65.723,32.906,64.453,33.541z
	"/>
<path fill="#1F1A17" d="M100,2.568V0H49.243h-1.67H0.01l0.039,2.539h1.895v5.503H1.807v0.01L0.288,8.056V8.042H0.127l0.044,2.891
	h5.723h40.273h1.396h1.401h0.186h33.887H100V8.052h-5.4V2.564L100,2.568z M14.297,8.051H5.952l0,0l0.005-5.488l8.34,0.005V8.051z
	 M18.432,8.051l0.005-5.488l8.335,0.01l0.005,5.479L18.432,8.051L18.432,8.051z M30.908,8.046V2.567h8.34l0.01,5.483L30.908,8.046z
	 M53.008,8.056h-3.77h-1.675h-4.17l-0.005-5.488h4.185h1.66h3.785L53.008,8.056z M65.488,8.056l-8.33-0.005l-0.01-5.483l8.35-0.005
	L65.488,8.056z M69.639,8.056V2.568l8.33,0.005v5.479L69.639,8.056z M90.459,8.051h-8.34V2.563l8.34,0.005V8.051z"/>
<path fill="#1F1A17" d="M99.98,55.64v-2.578H49.224h-1.666H0l0.034,2.539h1.895v5.508H1.792v0.01H0.273v-0.01H0.112L0.156,64h5.723
	l0,0h40.273h1.396h1.401h0.186h33.892H99.98v-2.881h-5.4l0.01-5.488L99.98,55.64z M14.282,61.119H5.937l0.005-5.488h8.34V61.119z
	 M18.418,61.119l0.005-5.488l8.335,0.01l0.005,5.479H18.418L18.418,61.119z M30.893,61.119V55.63h8.34l0.01,5.488H30.893z
	 M52.993,61.119h-3.77h-1.675h-4.17l-0.005-5.488h4.185h1.66h3.784L52.993,61.119z M65.479,61.119h-8.34V55.63h8.34V61.119z
	 M69.629,61.119V55.63l8.32,0.01l0.01,5.479H69.629L69.629,61.119z M90.449,61.119H82.1l0.01-5.488h8.34V61.119z"/>
</svg>
